<?xml version="1.0" encoding="UTF-8"?>
<svg version="1.1" xmlns="http://www.w3.org/2000/svg" width="26" height="27">
<path d="M0 0 C7.56898243 -1.83080906 14.54825692 -2.42862851 22 0 C24.42862851 7.45174308 23.83080906 14.43101757 22 22 C20.68 22 19.36 22 18 22 C18.103125 19.504375 18.20625 17.00875 18.3125 14.4375 C17.879375 12.643125 17.44625 10.84875 17 9 C12.14917921 12.83553272 8.2032033 17.22674654 4.07421875 21.82421875 C2.72972656 23.20222656 1.38523437 24.58023437 0 26 C-1.32 26 -2.64 26 -4 26 C-2.64309053 19.21545263 0.76634114 17.30390984 5.875 12.75 C10.2236018 8.75108543 10.2236018 8.75108543 13 5 C7.21992798 3.44150239 7.21992798 3.44150239 0 4 C0 2.68 0 1.36 0 0 Z " fill="#FDA57E" transform="translate(4,1)"/>
</svg>
