<?xml version="1.0" encoding="UTF-8"?>
<svg version="1.1" xmlns="http://www.w3.org/2000/svg" width="41" height="36">
<path d="M0 0 C1.32 0.66 2.64 1.32 4 2 C3 6 3 6 -1.87109375 10.19140625 C-2.90363281 11.44824219 -3.93617187 12.70507812 -5 14 C0.51150037 15.21145247 0.51150037 15.21145247 7.9375 14.9375 C21.98689516 14.98689516 21.98689516 14.98689516 23 16 C23 17.65 23 19.3 23 21 C15.38855841 21.46157924 7.86828777 21.23805659 0.24609375 21.078125 C-1.48511719 21.38234375 -3.21632813 21.6865625 -5 22 C-1.21327205 26.55691269 -1.21327205 26.55691269 4 31 C3.67 32.32 3.34 33.64 3 35 C-3.31865894 33.73626821 -5.43238814 31.23110406 -10 26.75 C-11.381875 25.42484375 -12.76375 24.0996875 -14.1875 22.734375 C-15.115625 21.50203125 -16.04375 20.2696875 -17 19 C-12.42535385 11.37558975 -6.51781815 6.05637969 0 0 Z " fill="#FFFFFF" transform="translate(18,1)"/>
</svg>
