<?xml version="1.0" encoding="UTF-8"?>
<svg version="1.1" xmlns="http://www.w3.org/2000/svg" width="40" height="36">
<path d="M0 0 C7.39618138 3.69809069 12.43551871 10.01948272 18 16 C16.26610672 24.6694664 9.29289733 29.1953447 3 35 C1.35 35 -0.3 35 -2 35 C-1 30 -1 30 3.90234375 25.73046875 C4.92457031 24.49941406 5.94679688 23.26835937 7 22 C1.24767904 20.95283474 1.24767904 20.95283474 -6.4375 21.3125 C-14.49609375 21.42578125 -14.49609375 21.42578125 -21 21 C-21.33 19.35 -21.66 17.7 -22 16 C-15.81277908 12.90638954 -4.7810841 15.00820619 2.04296875 15.0625 C3.67878906 14.711875 5.31460937 14.36125 7 14 C3.17890572 9.44063378 3.17890572 9.44063378 -2 5 C-1 1 -1 1 0 0 Z " fill="#FFFFFF" transform="translate(22,1)"/>
</svg>
